<?xml version="1.0" standalone="no"?>
<!DOCTYPE svg PUBLIC "-//W3C//DTD SVG 20010904//EN"
 "http://www.w3.org/TR/2001/REC-SVG-20010904/DTD/svg10.dtd">
<svg version="1.0" xmlns="http://www.w3.org/2000/svg"
 width="720.000000pt" height="720.000000pt" viewBox="0 0 720.000000 720.000000"
 preserveAspectRatio="xMidYMid meet">

<g transform="translate(0.000000,720.000000) scale(0.100000,-0.100000)"
fill="#f1f5f9" stroke="none">
<path d="M3476 6684 c-375 -50 -710 -157 -1027 -329 -381 -207 -688 -474 -946
-825 -105 -144 -160 -231 -238 -385 -215 -422 -315 -840 -315 -1320 0 -455 87
-840 279 -1240 131 -272 292 -510 469 -696 l86 -90 -224 -224 -223 -223 62
-58 c302 -279 675 -504 1046 -631 1270 -433 2683 80 3380 1227 224 368 365
800 405 1239 16 167 8 505 -15 651 -92 599 -329 1109 -712 1532 -31 35 -66 73
-77 86 l-20 23 223 223 222 222 -103 92 c-430 380 -902 609 -1463 708 -133 24
-181 27 -425 30 -199 2 -305 -1 -384 -12z"/>
</g>
</svg>
